Genre:Adventure | Horror | Thriller
Language:English
IMDb:http://www.imdb.com/title/tt1203517/
Source:BluRay.x264-THUGLiNE

General
Complete name : The.Graves.2010.BRRip 480p.H264.FEEL-FREE
Format : MPEG-4
Format profile : Base Media
Codec ID : isom
File size : 1.64 GiB
Duration : 1h 24mn
Overall bit rate : 2 779 Kbps
Video #1
ID : 1
Format : MPEG-4 Visual
Format profile : Simple@L1
Format settings, BVOP : No
Format settings, QPel : No
Format settings, GMC : No warppoints
Format settings, Matrix : Default (H.263)
Codec ID : 20
Duration : 1h 24mn
Bit rate mode : Variable
Bit rate : 2 555 Kbps
Width : 652 pixels
Height : 352 pixels
Display aspect ratio : 16:9
Frame rate mode : Constant
Frame rate : 30.000 fps
Resolution : 24 bits
Colorimetry : 4:2:0
Scan type : Progressive
Bits/(Pixel*Frame) : 0.371
Stream size : 1.51 GiB (92%)
Writing library : Lavc51.40.4
Audio #2
ID : 2
Format : AAC
Format/Info : Advanced Audio Codec
Format version : Version 4
Format profile : LC
Format settings, SBR : No
Codec ID : 40
Duration : 1h 23mn
Bit rate mode : Variable
Bit rate : 224 Kbps
Channel(s) : 6 channels
Channel positions : Front: L C R, Rear: L R, LFE
Sampling rate : 48.0 KHz
Resolution : 16 bits
Stream size : 132 MiB (8%)

Plot:
Two inseparable sister's visit to a remote mine town turns into a mind-bending fight for survival against menaces both human and supernatural



 
http://thepiratebay.org/user/hiest





Screenshots:
 
http://www.starshare.ro/bitbucket/The.Graves.2010.RRip%20480p.H264.FEEL-FREE.mp4_thumbs_%5B2010.08.23_12.24.29%5D.jpg
 
http://www.starshare.ro/bitbucket/vlcsnap-2010-08-23-12h23m06s85.jpg
 
http://www.starshare.ro/bitbucket/vlcsnap-2010-08-23-12h23m46s220.jpg
 
http://www.starshare.ro/bitbucket/vlcsnap-2010-08-23-12h24m01s124.jpg